<svg width="190" height="51" viewBox="0 0 190 51" fill="none" xmlns="http://www.w3.org/2000/svg">
<path d="M0 50V3.45454H33.5455V13.6364H12.6364V21.6364H31.8182V31.8182H12.6364V39.8182H33.4545V50H0ZM52.5398 3.45454V50H39.9943V3.45454H52.5398ZM58.9318 50V15.0909H71.4773V50H58.9318ZM65.2045 11.4545C63.5076 11.4545 62.053 10.8939 60.8409 9.77273C59.6288 8.65151 59.0227 7.30303 59.0227 5.72727C59.0227 4.15151 59.6288 2.80303 60.8409 1.68182C62.053 0.560605 63.5076 0 65.2045 0C66.9167 0 68.3712 0.560605 69.5682 1.68182C70.7803 2.80303 71.3864 4.15151 71.3864 5.72727C71.3864 7.30303 70.7803 8.65151 69.5682 9.77273C68.3712 10.8939 66.9167 11.4545 65.2045 11.4545ZM109.778 26.4545H98.233C98.1723 25.7424 97.9223 25.1288 97.483 24.6136C97.0436 24.0985 96.4754 23.7045 95.7784 23.4318C95.0966 23.1439 94.339 23 93.5057 23C92.4299 23 91.5057 23.197 90.733 23.5909C89.9602 23.9848 89.5814 24.5455 89.5966 25.2727C89.5814 25.7879 89.8011 26.2652 90.2557 26.7045C90.7254 27.1439 91.6269 27.4848 92.9602 27.7273L100.051 29C103.627 29.6515 106.286 30.75 108.028 32.2955C109.786 33.8258 110.672 35.8788 110.688 38.4545C110.672 40.9394 109.93 43.0985 108.46 44.9318C107.006 46.75 105.013 48.1591 102.483 49.1591C99.9678 50.1439 97.0966 50.6364 93.8693 50.6364C88.536 50.6364 84.3617 49.5455 81.3466 47.3636C78.3466 45.1818 76.6723 42.303 76.3239 38.7273H88.7784C88.9451 39.8333 89.4905 40.6894 90.4148 41.2955C91.3542 41.8864 92.536 42.1818 93.9602 42.1818C95.1117 42.1818 96.0587 41.9848 96.8011 41.5909C97.5587 41.197 97.9451 40.6364 97.9602 39.9091C97.9451 39.2424 97.6117 38.7121 96.9602 38.3182C96.3239 37.9242 95.3239 37.6061 93.9602 37.3636L87.7784 36.2727C84.2178 35.6515 81.5511 34.4697 79.7784 32.7273C78.0057 30.9848 77.1269 28.7424 77.142 26C77.1269 23.5758 77.7633 21.5227 79.0511 19.8409C80.3542 18.1439 82.2102 16.8561 84.6193 15.9773C87.0436 15.0833 89.9148 14.6364 93.233 14.6364C98.2784 14.6364 102.256 15.6818 105.165 17.7727C108.089 19.8636 109.627 22.7576 109.778 26.4545ZM132.222 50.6364C128.494 50.6364 125.282 49.9242 122.585 48.5C119.903 47.0606 117.835 45 116.381 42.3182C114.941 39.6212 114.222 36.3939 114.222 32.6364C114.222 29.0303 114.949 25.8788 116.403 23.1818C117.858 20.4848 119.911 18.3864 122.562 16.8864C125.214 15.3864 128.343 14.6364 131.949 14.6364C134.585 14.6364 136.972 15.0455 139.108 15.8636C141.244 16.6818 143.07 17.8712 144.585 19.4318C146.1 20.9773 147.267 22.8561 148.085 25.0682C148.903 27.2803 149.312 29.7727 149.312 32.5455V35.4545H118.131V28.5455H137.767C137.752 27.5455 137.494 26.6667 136.994 25.9091C136.509 25.1364 135.85 24.5379 135.017 24.1136C134.199 23.6742 133.267 23.4545 132.222 23.4545C131.206 23.4545 130.275 23.6742 129.426 24.1136C128.578 24.5379 127.896 25.1288 127.381 25.8864C126.881 26.6439 126.616 27.5303 126.585 28.5455V36C126.585 37.1212 126.82 38.1212 127.29 39C127.759 39.8788 128.434 40.5682 129.312 41.0682C130.191 41.5682 131.252 41.8182 132.494 41.8182C133.358 41.8182 134.146 41.697 134.858 41.4545C135.585 41.2121 136.206 40.8636 136.722 40.4091C137.237 39.9394 137.616 39.3788 137.858 38.7273H149.312C148.919 41.1515 147.987 43.2576 146.517 45.0455C145.047 46.8182 143.1 48.197 140.676 49.1818C138.267 50.1515 135.449 50.6364 132.222 50.6364ZM171.25 50.6364C167.462 50.6364 164.22 49.8864 161.523 48.3864C158.826 46.8712 156.758 44.7652 155.318 42.0682C153.879 39.3561 153.159 36.2121 153.159 32.6364C153.159 29.0606 153.879 25.9242 155.318 23.2273C156.758 20.5152 158.826 18.4091 161.523 16.9091C164.22 15.3939 167.462 14.6364 171.25 14.6364C175.038 14.6364 178.28 15.3939 180.977 16.9091C183.674 18.4091 185.742 20.5152 187.182 23.2273C188.621 25.9242 189.341 29.0606 189.341 32.6364C189.341 36.2121 188.621 39.3561 187.182 42.0682C185.742 44.7652 183.674 46.8712 180.977 48.3864C178.28 49.8864 175.038 50.6364 171.25 50.6364ZM171.341 41.3636C172.402 41.3636 173.318 41.0076 174.091 40.2955C174.864 39.5833 175.462 38.5682 175.886 37.25C176.311 35.9318 176.523 34.3636 176.523 32.5455C176.523 30.7121 176.311 29.1439 175.886 27.8409C175.462 26.5227 174.864 25.5076 174.091 24.7955C173.318 24.0833 172.402 23.7273 171.341 23.7273C170.22 23.7273 169.258 24.0833 168.455 24.7955C167.652 25.5076 167.038 26.5227 166.614 27.8409C166.189 29.1439 165.977 30.7121 165.977 32.5455C165.977 34.3636 166.189 35.9318 166.614 37.25C167.038 38.5682 167.652 39.5833 168.455 40.2955C169.258 41.0076 170.22 41.3636 171.341 41.3636Z" fill="white"/>
</svg>
