<svg width="204" height="204" viewBox="0 0 204 204" fill="none" xmlns="http://www.w3.org/2000/svg">
<path fill-rule="evenodd" clip-rule="evenodd" d="M102.333 102C102.333 86.1681 115.168 73.3333 131 73.3333C146.832 73.3333 159.667 86.1681 159.667 102C159.667 117.832 146.832 130.667 131 130.667C115.168 130.667 102.333 117.832 102.333 102Z" fill="#1ABCFE"/>
<path fill-rule="evenodd" clip-rule="evenodd" d="M45 159.333C45 143.501 57.8345 130.667 73.6667 130.667H102.333V159.333C102.333 175.165 89.4986 188 73.6667 188C57.8345 188 45 175.165 45 159.333Z" fill="#0ACF83"/>
<path fill-rule="evenodd" clip-rule="evenodd" d="M102.333 16V73.3333H131C146.832 73.3333 159.667 60.4986 159.667 44.6667C159.667 28.8345 146.832 16 131 16H102.333Z" fill="#FF7262"/>
<path fill-rule="evenodd" clip-rule="evenodd" d="M45 44.6667C45 60.4986 57.8345 73.3333 73.6667 73.3333H102.333V16H73.6667C57.8345 16 45 28.8345 45 44.6667Z" fill="#F24E1E"/>
<path fill-rule="evenodd" clip-rule="evenodd" d="M45 102C45 117.832 57.8345 130.667 73.6667 130.667H102.333V73.3333H73.6667C57.8345 73.3333 45 86.1681 45 102Z" fill="#A259FF"/>
</svg>
