<svg width="204" height="204" viewBox="0 0 204 204" fill="none" xmlns="http://www.w3.org/2000/svg">
<path d="M119.953 101.841C119.953 92.3515 112.019 84.6578 102.231 84.6578C92.4439 84.6578 84.5088 92.3515 84.5088 101.841C84.5088 111.331 92.4439 119.024 102.231 119.024C112.019 119.024 119.953 111.331 119.953 101.841Z" fill="#53C1DE"/>
<path fill-rule="evenodd" clip-rule="evenodd" d="M159.787 69.9399C163.53 55.1947 168.234 27.8513 151.65 18.5811C135.144 9.3512 113.665 27.0373 102.323 37.6533C91.0137 27.1431 68.9309 9.53259 52.3616 18.8323C35.862 28.0931 40.9501 54.9831 44.7755 69.8208C29.3842 74.0593 3 83.1885 3 101.841C3 120.44 29.3568 130.372 44.6569 134.607C40.8174 149.526 35.984 176.032 52.5047 185.272C69.136 194.57 91.15 177.379 102.597 166.647C114.012 177.325 135.285 194.629 151.795 185.363C168.356 176.068 164.042 149.091 160.217 134.167C175.048 129.924 201.462 120.208 201.462 101.841C201.462 83.3678 174.936 74.1644 159.787 69.9399ZM157.907 126.259C155.395 118.549 152.005 110.351 147.858 101.882C151.816 93.6123 155.075 85.5197 157.517 77.8598C168.622 80.9816 192.984 88.1163 192.984 101.841C192.984 115.694 169.606 122.896 157.907 126.259ZM147.546 178.249C135.228 185.162 116.931 168.614 108.501 160.751C114.093 154.82 119.682 147.925 125.137 140.269C134.731 139.444 143.795 138.095 152.016 136.252C154.708 146.809 159.918 171.305 147.546 178.249ZM56.7409 178.15C44.4218 171.263 50.0525 147.61 52.8772 136.62C61.0059 138.364 70.0046 139.618 79.622 140.375C85.1121 147.866 90.8629 154.752 96.658 160.782C89.4981 167.498 69.1175 185.069 56.7409 178.15ZM11.4775 101.841C11.4775 87.9357 35.6937 80.8526 47.0521 77.7387C49.536 85.5707 52.7937 93.7599 56.7251 102.041C52.7427 110.445 49.4385 118.764 46.9318 126.689C36.1013 123.683 11.4775 115.754 11.4775 101.841ZM56.6091 25.9465C68.9785 19.0044 88.1711 35.9112 96.3821 43.5209C90.6168 49.5237 84.919 56.3578 79.4758 63.8061C70.1422 64.6449 61.2071 65.9918 52.9931 67.7965C49.9113 55.8293 44.253 32.8811 56.6091 25.9465ZM131.202 72.7408C137.534 73.5155 143.601 74.5461 149.297 75.807C147.587 81.1218 145.456 86.6794 142.945 92.3766C139.306 85.6818 135.4 79.1213 131.202 72.7408ZM102.325 49.3951C106.236 53.5024 110.152 58.0891 114.005 63.0651C106.19 62.7066 98.3628 62.7053 90.548 63.0599C94.4041 58.1299 98.3541 53.5501 102.325 49.3951ZM61.5892 92.3706C59.1202 86.6933 57.0079 81.1113 55.2828 75.7204C60.9453 74.4919 66.984 73.4877 73.2752 72.7256C69.0652 79.0922 65.1654 85.6501 61.5892 92.3706ZM73.4558 131.542C66.9569 130.839 60.8268 129.886 55.166 128.691C56.9183 123.206 59.0772 117.503 61.5988 111.703C65.2243 118.494 69.1836 125.115 73.4558 131.542ZM102.56 154.867C98.542 150.663 94.5338 146.013 90.6194 141.012C98.4785 141.311 106.353 141.311 114.211 140.971C110.347 146.064 106.444 150.72 102.56 154.867ZM143.026 111.408C145.679 117.271 147.915 122.942 149.691 128.335C143.936 129.609 137.724 130.634 131.178 131.395C135.407 124.894 139.375 118.231 143.026 111.408ZM120.405 132.392C108.384 133.225 96.2875 133.215 84.2621 132.46C77.429 122.782 71.3462 112.604 66.0956 102.038C71.321 91.4941 77.3596 81.3362 84.1602 71.6737C96.1942 70.7919 108.302 70.7893 120.336 71.679C127.079 81.3408 133.108 91.4723 138.455 101.921C133.172 112.46 127.101 122.639 120.405 132.392ZM147.416 25.7021C159.789 32.6214 154.281 57.1957 151.578 67.8818C143.345 66.0394 134.403 64.6687 125.043 63.8167C119.589 56.2879 113.939 49.442 108.267 43.5166C116.583 35.743 135.163 18.8505 147.416 25.7021Z" fill="#53C1DE"/>
</svg>
