<svg width="204" height="204" viewBox="0 0 204 204" fill="none" xmlns="http://www.w3.org/2000/svg">
<rect x="43.1516" y="36.3323" width="113.201" height="126.39" fill="white"/>
<rect x="43.1516" y="36.3323" width="113.201" height="126.39" fill="white"/>
<path d="M178.334 16L163.998 171.277L101.888 188L39.7769 171.277L25.4443 16H178.334ZM149.447 47.5731H101.832H53.3741L55.6916 66.3242H101.832H104.424L101.832 67.403L57.3779 85.9178L58.8522 104.246L101.832 104.386L124.868 104.459L123.394 128.898L101.832 134.968V134.949L101.655 134.998L80.8319 129.742L79.5683 114.571H79.4993H60.1848H60.1168L62.645 143.857L101.833 155.446V155.425L101.903 155.446L140.881 144.068L145.937 85.9178H101.833H101.724L101.833 85.8706L147.552 66.3242L149.447 47.5731Z" fill="#33AADD"/>
<path d="M178.334 16L163.998 171.277L101.888 188L39.7769 171.277L25.4443 16H178.334ZM149.447 47.5731H101.832H53.3741L55.6916 66.3242H101.832H104.424L101.832 67.403L57.3779 85.9178L58.8522 104.246L101.832 104.386L124.868 104.459L123.394 128.898L101.832 134.968V134.949L101.655 134.998L80.8319 129.742L79.5683 114.571H79.4993H60.1848H60.1168L62.645 143.857L101.833 155.446V155.425L101.903 155.446L140.881 144.068L145.937 85.9178H101.833H101.724L101.833 85.8706L147.552 66.3242L149.447 47.5731Z" fill="#33AADD"/>
</svg>
