<svg width="204" height="204" viewBox="0 0 204 204" fill="none" xmlns="http://www.w3.org/2000/svg">
<rect x="46.6787" y="36.3323" width="111.805" height="126.39" fill="white"/>
<path fill-rule="evenodd" clip-rule="evenodd" d="M148.61 67.6H148.549H75.3663L77.1164 84.8H146.869C145.846 99.8672 142.753 131.789 141.618 146.314L102.441 157.48V157.514L102.354 157.556L63.1504 143.589L60.4646 110.6H79.6809L81.0411 128.342L102.389 136.4H102.441L123.754 128.661L125.946 102H59.6069C59.2863 98.5514 55.1623 53.7712 54.4432 50.4H150.325C149.788 56.076 149.242 61.9068 148.61 67.6ZM26 16L39.9141 172.072L102.354 188L164.959 171.753L178.89 16H26Z" fill="#F16529"/>
</svg>
