<svg width="204" height="204" viewBox="0 0 204 204" fill="none" xmlns="http://www.w3.org/2000/svg">
<path d="M16 46C16 29.4315 29.4315 16 46 16H158C174.569 16 188 29.4315 188 46V158C188 174.569 174.569 188 158 188H46C29.4315 188 16 174.569 16 158V46Z" fill="#F7DF1E"/>
<path d="M61.2253 159.736L74.3873 151.77C76.927 156.272 79.2369 160.082 84.7779 160.082C90.089 160.082 93.4383 158.004 93.4383 149.923V94.9648H109.602V150.151C109.602 166.892 99.7882 174.513 85.4706 174.513C72.5403 174.513 65.0348 167.816 61.2246 159.734M118.381 158.004L131.542 150.384C135.007 156.042 139.509 160.198 147.475 160.198C154.173 160.198 158.444 156.849 158.444 152.231C158.444 146.689 154.056 144.726 146.667 141.494L142.627 139.761C130.965 134.798 123.23 128.563 123.23 115.401C123.23 103.277 132.466 94.0403 146.899 94.0403C157.174 94.0403 164.564 97.6201 169.874 106.972L157.289 115.055C154.517 110.09 151.517 108.128 146.898 108.128C142.164 108.128 139.162 111.129 139.162 115.055C139.162 119.903 142.164 121.867 149.091 124.869L153.132 126.601C166.872 132.49 174.607 138.493 174.607 152C174.607 166.549 163.177 174.515 147.821 174.515C132.812 174.515 123.114 167.357 118.38 158.004" fill="black"/>
</svg>
