<svg width="204" height="204" viewBox="0 0 204 204" fill="none" xmlns="http://www.w3.org/2000/svg">
<path d="M45.2393 16H159.171C176.444 16 190.41 29.9658 190.41 47.2393V156.761C190.41 174.034 176.444 188 159.171 188H45.2393C27.9658 188 14 174.034 14 156.761V47.2393C14 29.9658 27.9658 16 45.2393 16Z" fill="#330000"/>
<path d="M99.2648 118.906H71.9213L66.3349 136.18C66.1879 136.841 65.5999 137.282 64.9383 137.209H51.1195C50.311 137.209 50.0905 136.768 50.311 135.885L73.9794 67.747C74.1999 67.012 74.4204 66.2034 74.7144 65.3214C75.0084 63.7778 75.1554 62.1607 75.1554 60.5436C75.0819 60.1761 75.376 59.8086 75.7435 59.7351H94.7811C95.3691 59.7351 95.6631 59.9556 95.7366 60.3231L122.566 136.033C122.786 136.841 122.566 137.209 121.831 137.209H106.468C105.954 137.282 105.439 136.915 105.292 136.4L99.2648 118.906ZM76.1845 103.985H94.8546C94.4136 102.441 93.8255 100.603 93.164 98.6923C92.5024 96.7077 91.8409 94.5761 91.1794 92.371C90.4443 90.0923 89.7828 87.8872 89.0477 85.6086C88.3127 83.3299 87.6512 81.1983 87.0631 79.0667C86.4751 77.0086 85.9606 75.0975 85.446 73.3334H85.299C84.6375 76.494 83.8289 79.6547 82.7999 82.8154C81.6973 86.3436 80.5948 90.0188 79.4187 93.694C78.3896 97.4428 77.2871 100.897 76.1845 103.985ZM138.957 72.5983C136.532 72.6718 134.179 71.7163 132.415 70.0257C130.725 68.1881 129.843 65.7624 129.916 63.2633C129.843 60.7641 130.798 58.412 132.562 56.7214C134.326 55.0308 136.679 54.1487 139.104 54.1487C141.971 54.1487 144.176 55.0308 145.793 56.7214C147.41 58.4855 148.292 60.8376 148.219 63.2633C148.292 65.7624 147.41 68.1881 145.646 70.0257C143.955 71.7898 141.456 72.7453 138.957 72.5983ZM130.725 136.4V79.8017C130.725 79.0667 131.019 78.7727 131.68 78.7727H146.234C146.896 78.7727 147.19 79.1402 147.19 79.8017V136.4C147.19 137.209 146.896 137.576 146.234 137.576H131.827C131.092 137.576 130.725 137.135 130.725 136.4Z" fill="#FF9A00"/>
</svg>
