<svg width="204" height="204" viewBox="0 0 204 204" fill="none" xmlns="http://www.w3.org/2000/svg">
<path d="M45.2393 16H159.171C176.444 16 190.41 29.9658 190.41 47.2393V156.761C190.41 174.034 176.444 188 159.171 188H45.2393C27.9658 188 14 174.034 14 156.761V47.2393C14 29.9658 27.9658 16 45.2393 16Z" fill="#001E36"/>
<path d="M53.6924 136.621V60.9846C53.6924 60.4701 53.9129 60.1761 54.4274 60.1761C55.677 60.1761 56.8531 60.1761 58.5437 60.1026C60.3078 60.0291 62.1454 60.0291 64.13 59.9556C66.1146 59.8821 68.2462 59.8821 70.5249 59.8085C72.8035 59.735 75.0086 59.735 77.2137 59.735C83.2411 59.735 88.2394 60.4701 92.3556 62.0137C96.0308 63.2633 99.412 65.3214 102.205 68.041C104.557 70.3932 106.395 73.2598 107.571 76.4205C108.674 79.5077 109.262 82.6684 109.262 85.9761C109.262 92.2974 107.792 97.5162 104.851 101.632C101.911 105.749 97.7949 108.836 93.0172 110.6C88.0189 112.438 82.5061 113.099 76.4787 113.099C74.7146 113.099 73.5385 113.099 72.8035 113.026C72.0685 112.952 71.0394 112.952 69.6428 112.952V136.547C69.7163 137.062 69.3488 137.503 68.8343 137.576C68.7608 137.576 68.6873 137.576 68.5402 137.576H54.5744C53.9864 137.576 53.6924 137.282 53.6924 136.621ZM69.7163 74.3624V99.0598C70.7454 99.1333 71.7009 99.2068 72.583 99.2068H76.4787C79.3454 99.2068 82.212 98.7658 84.9317 97.8838C87.2838 97.2222 89.342 95.8256 90.959 93.988C92.5026 92.1504 93.2377 89.6513 93.2377 86.4171C93.3112 84.1385 92.7231 81.8598 91.5471 79.8752C90.2975 77.9641 88.5334 76.494 86.4018 75.6855C83.6821 74.5829 80.742 74.1419 77.7283 74.2154C75.8172 74.2154 74.1266 74.2154 72.73 74.2889C71.2599 74.2154 70.2308 74.2889 69.7163 74.3624Z" fill="#31A8FF"/>
<path d="M155.128 94.5761C152.923 93.4 150.571 92.5915 148.072 92.0769C145.352 91.4889 142.633 91.1214 139.839 91.1214C138.369 91.0479 136.826 91.2684 135.429 91.6359C134.474 91.8564 133.665 92.3709 133.15 93.106C132.783 93.694 132.562 94.4291 132.562 95.0906C132.562 95.7521 132.856 96.4137 133.297 97.0017C133.959 97.8103 134.841 98.4718 135.797 98.9863C137.487 99.8684 139.251 100.677 141.015 101.412C144.985 102.735 148.807 104.573 152.335 106.778C154.761 108.321 156.745 110.379 158.142 112.879C159.318 115.231 159.906 117.803 159.833 120.45C159.906 123.904 158.877 127.359 156.966 130.226C154.908 133.166 152.041 135.444 148.733 136.768C145.132 138.311 140.721 139.12 135.429 139.12C132.048 139.12 128.74 138.826 125.433 138.164C122.86 137.723 120.287 136.915 117.935 135.812C117.421 135.518 117.053 135.003 117.127 134.415V121.626C117.127 121.405 117.2 121.111 117.421 120.964C117.641 120.817 117.862 120.891 118.082 121.038C120.949 122.728 123.962 123.904 127.197 124.639C129.99 125.374 132.93 125.742 135.87 125.742C138.663 125.742 140.648 125.374 141.971 124.713C143.147 124.198 143.956 122.949 143.956 121.626C143.956 120.597 143.368 119.641 142.192 118.685C141.015 117.73 138.59 116.627 134.988 115.231C131.239 113.908 127.785 112.144 124.55 109.938C122.272 108.321 120.361 106.19 118.964 103.691C117.788 101.338 117.2 98.7658 117.274 96.1932C117.274 93.0325 118.156 90.0188 119.773 87.2992C121.61 84.359 124.33 82.0068 127.491 80.5368C130.945 78.7727 135.282 77.9641 140.501 77.9641C143.515 77.9641 146.602 78.1846 149.615 78.6256C151.821 78.9197 153.952 79.5077 155.937 80.3162C156.231 80.3897 156.525 80.6838 156.672 80.9778C156.745 81.2718 156.819 81.5658 156.819 81.8598V93.841C156.819 94.135 156.672 94.4291 156.451 94.5761C155.79 94.7231 155.422 94.7231 155.128 94.5761Z" fill="#31A8FF"/>
</svg>
