<svg width="100" height="100" viewBox="0 0 100 100" fill="none" xmlns="http://www.w3.org/2000/svg">
<path d="M50.0002 8.33337C44.5284 8.33337 39.1103 9.41111 34.055 11.5051C28.9998 13.599 24.4065 16.6682 20.5374 20.5373C12.7234 28.3513 8.3335 38.9494 8.3335 50C8.3335 68.4167 20.2918 84.0417 36.8335 89.5834C38.9168 89.9167 39.5835 88.625 39.5835 87.5V80.4584C28.0418 82.9584 25.5835 74.875 25.5835 74.875C23.6668 70.0417 20.9585 68.75 20.9585 68.75C17.1668 66.1667 21.2502 66.25 21.2502 66.25C25.4168 66.5417 27.6252 70.5417 27.6252 70.5417C31.2502 76.875 37.3752 75 39.7502 74C40.1252 71.2917 41.2085 69.4584 42.3752 68.4167C33.1252 67.375 23.4168 63.7917 23.4168 47.9167C23.4168 43.2917 25.0002 39.5834 27.7085 36.625C27.2918 35.5834 25.8335 31.25 28.1252 25.625C28.1252 25.625 31.6252 24.5 39.5835 29.875C42.8752 28.9584 46.4585 28.5 50.0002 28.5C53.5418 28.5 57.1252 28.9584 60.4168 29.875C68.3752 24.5 71.8752 25.625 71.8752 25.625C74.1668 31.25 72.7085 35.5834 72.2918 36.625C75.0002 39.5834 76.5835 43.2917 76.5835 47.9167C76.5835 63.8334 66.8335 67.3334 57.5418 68.375C59.0418 69.6667 60.4168 72.2084 60.4168 76.0834V87.5C60.4168 88.625 61.0835 89.9584 63.2085 89.5834C79.7502 84 91.6668 68.4167 91.6668 50C91.6668 44.5283 90.5891 39.1101 88.4952 34.0549C86.4012 28.9997 83.3321 24.4064 79.463 20.5373C75.5938 16.6682 71.0005 13.599 65.9453 11.5051C60.8901 9.41111 55.4719 8.33337 50.0002 8.33337Z" fill="white"/>
</svg>
