<svg width="100" height="100" viewBox="0 0 100 100" fill="none" xmlns="http://www.w3.org/2000/svg">
<path d="M32.4987 8.33301H67.4987C80.832 8.33301 91.6654 19.1663 91.6654 32.4997V67.4997C91.6654 73.9091 89.1192 80.056 84.5871 84.5881C80.055 89.1202 73.9081 91.6663 67.4987 91.6663H32.4987C19.1654 91.6663 8.33203 80.833 8.33203 67.4997V32.4997C8.33203 26.0903 10.8782 19.9434 15.4103 15.4113C19.9424 10.8791 26.0893 8.33301 32.4987 8.33301ZM31.6654 16.6663C27.6871 16.6663 23.8718 18.2467 21.0588 21.0597C18.2457 23.8728 16.6654 27.6881 16.6654 31.6663V68.333C16.6654 76.6247 23.3737 83.333 31.6654 83.333H68.332C72.3103 83.333 76.1256 81.7527 78.9386 78.9396C81.7517 76.1266 83.332 72.3113 83.332 68.333V31.6663C83.332 23.3747 76.6237 16.6663 68.332 16.6663H31.6654ZM71.8737 22.9163C73.255 22.9163 74.5798 23.4651 75.5566 24.4418C76.5333 25.4186 77.082 26.7433 77.082 28.1247C77.082 29.506 76.5333 30.8308 75.5566 31.8075C74.5798 32.7843 73.255 33.333 71.8737 33.333C70.4924 33.333 69.1676 32.7843 68.1909 31.8075C67.2141 30.8308 66.6654 29.506 66.6654 28.1247C66.6654 26.7433 67.2141 25.4186 68.1909 24.4418C69.1676 23.4651 70.4924 22.9163 71.8737 22.9163ZM49.9987 29.1663C55.524 29.1663 60.8231 31.3613 64.7301 35.2683C68.6371 39.1753 70.832 44.4743 70.832 49.9997C70.832 55.525 68.6371 60.8241 64.7301 64.7311C60.8231 68.6381 55.524 70.833 49.9987 70.833C44.4734 70.833 39.1743 68.6381 35.2673 64.7311C31.3603 60.8241 29.1654 55.525 29.1654 49.9997C29.1654 44.4743 31.3603 39.1753 35.2673 35.2683C39.1743 31.3613 44.4734 29.1663 49.9987 29.1663ZM49.9987 37.4997C46.6835 37.4997 43.5041 38.8166 41.1599 41.1608C38.8157 43.505 37.4987 46.6845 37.4987 49.9997C37.4987 53.3149 38.8157 56.4943 41.1599 58.8385C43.5041 61.1827 46.6835 62.4997 49.9987 62.4997C53.3139 62.4997 56.4933 61.1827 58.8375 58.8385C61.1817 56.4943 62.4987 53.3149 62.4987 49.9997C62.4987 46.6845 61.1817 43.505 58.8375 41.1608C56.4933 38.8166 53.3139 37.4997 49.9987 37.4997Z" fill="white"/>
</svg>
